<svg xmlns="http://www.w3.org/2000/svg" viewBox="0 0 520 120" width="520" height="120">
  <defs>
    <linearGradient id="kairoGrad" x1="0%" y1="0%" x2="0%" y2="100%">
      <stop offset="0%" style="stop-color:#93c8e0"/>
      <stop offset="100%" style="stop-color:#5ba4c7"/>
    </linearGradient>
    <linearGradient id="urfGrad" x1="0%" y1="0%" x2="0%" y2="100%">
      <stop offset="0%" style="stop-color:#c8ecf8"/>
      <stop offset="100%" style="stop-color:#6dd4f0"/>
    </linearGradient>
    <linearGradient id="sharedS" x1="0%" y1="100%" x2="0%" y2="0%">
      <stop offset="0%"   style="stop-color:#5ba4c7"/>
      <stop offset="45%"  style="stop-color:#7dc4e0"/>
      <stop offset="100%" style="stop-color:#c8ecf8"/>
    </linearGradient>
  </defs>

  <rect width="520" height="120" rx="12" fill="#080e18"/>

  <text x="18" y="82"
        font-family="'Courier New', Courier, monospace"
        font-size="72" font-weight="700"
        fill="url(#kairoGrad)" letter-spacing="-1">KAIRO</text>

  <text x="226" y="82"
        font-family="'Courier New', Courier, monospace"
        font-size="72" font-weight="700"
        fill="url(#sharedS)">S</text>

  <text x="272" y="82"
        font-family="'Courier New', Courier, monospace"
        font-size="72" font-weight="700"
        fill="url(#urfGrad)" letter-spacing="-1">URF</text>

  <path d="M18,93 C60,93 80,86 110,88 C140,90 155,96 185,91 C210,87 230,80 270,78 C310,76 340,82 380,80 C420,78 450,85 500,84"
        fill="none" stroke="#5ba4c7" stroke-width="1" stroke-opacity="0.2" stroke-linecap="round"/>
  <path d="M18,93 C60,93 80,86 110,88 C140,90 155,96 185,91 C210,87 230,80 270,78"
        fill="none" stroke="#5ba4c7" stroke-width="1.5" stroke-opacity="0.45" stroke-linecap="round"/>

  <line x1="18" y1="92" x2="268" y2="92" stroke="#5ba4c7" stroke-width="1.5" stroke-opacity="0.45"/>

  <text x="20" y="113"
        font-family="'Courier New', Courier, monospace"
        font-size="13" font-weight="700"
        fill="#5ba4c7" letter-spacing="4.5">FIND YOUR MOMENT</text>

</svg>